#!OML:ASF H:\Punching\Project 1\Capture day 1\Session 1\female.ASF
:FULLY-SPECIFIED
:DEGREES
4388
root 13.3936 15.5589 31.1934 -202.688 261.554 -145.712
lowerback -6.27139 0.27135 2.3717
upperback -6.46986 0.089408 0.769573
thorax -3.16539 -0.11866 -0.526205
lowerneck -11.1857 -8.59323 -5.08856
upperneck 35.2814 -15.3353 5.203
head 14.9695 -7.11335 0.384157
rclavicle 1.77912e-014 -7.95139e-015
rhumerus -33.0628 6.93736 -82.3996
rradius 30.6998
rwrist 4.50279
rhand -11.9057 -3.27395
rfingers 7.12502
rthumb 14.1478 -32.7722
lclavicle 1.77912e-014 -7.95139e-015
lhumerus -52.5333 7.99924 76.6341
lradius 37.2624
lwrist -15.7003
lhand -3.68777 11.4695
lfingers 7.12502
lthumb 22.0538 40.232
rfemur -14.781 6.07839 30.6399
rtibia 21.2148
rfoot -18.9131 -12.8171
rtoes 17.8617
lfemur -32.0167 -0.579628 -19.5228
ltibia 64.9665
lfoot -2.14989 10.5583
ltoes -5.27853
4389
root 13.3492 15.5504 31.1976 -209.115 262.813 -139.273
lowerback -6.18037 0.320982 2.41071
upperback -6.44174 0.154916 0.794226
thorax -3.18487 -0.0877225 -0.520463
lowerneck -11.2503 -8.47389 -5.02809
upperneck 35.3251 -15.1756 5.14197
head 14.9798 -7.05089 0.372118
rclavicle 3.47873e-015 1.59028e-014
rhumerus -32.7389 7.75571 -82.9622
rradius 30.9025
rwrist 4.37795
rhand -11.9599 -3.32272
rfingers 7.12502
rthumb 14.0957 -32.8246
lclavicle 3.47873e-015 1.59028e-014
lhumerus -52.7666 7.8658 76.4564
lradius 36.8918
lwrist -15.8357
lhand -3.61805 11.4926
lfingers 7.12502
lthumb 22.1207 40.2472
rfemur -14.5767 6.65662 30.6103
rtibia 21.3372
rfoot -19.0172 -12.0832
rtoes 17.1854
lfemur -32.344 -1.14614 -19.3924
ltibia 64.2516
lfoot -3.54751 11.1968
ltoes -5.21953
4390
root 13.3038 15.5416 31.2006 -217.9 263.948 -130.472
lowerback -6.09134 0.364038 2.45636
upperback -6.41096 0.211576 0.819709
thorax -3.2007 -0.0613426 -0.517995
lowerneck -11.3382 -8.34561 -4.93081
upperneck 35.3751 -15.0047 5.06421
head 14.9923 -6.98009 0.348029
rclavicle -2.5842e-015 -2.22639e-014
rhumerus -32.4374 8.57396 -83.5286
rradius 31.1201
rwrist 4.20765
rhand -11.9935 -3.38392
rfingers 7.12502
rthumb 14.0632 -32.8881
lclavicle -2.5842e-015 -2.22639e-014
lhumerus -52.9878 7.73716 76.2451
lradius 36.5006
lwrist -16.0105
lhand -3.53463 11.5081
lfingers 7.12502
lthumb 22.2008 40.2532
rfemur -14.3701 7.23682 30.5951
rtibia 21.4505
rfoot -19.1404 -11.3369
rtoes 16.6681
lfemur -32.6725 -1.7184 -19.2403
ltibia 63.4589
lfoot -4.87762 11.8168
ltoes -5.08073
4391
root 13.2575 15.5329 31.2023 -230.064 264.873 -118.285
lowerback -6.00082 0.406299 2.50508
upperback -6.38443 0.267104 0.838194
thorax -3.22181 -0.0359332 -0.524603
lowerneck -11.4352 -8.2117 -4.81609
upperneck 35.431 -14.8313 4.98822
head 15.0085 -6.90538 0.321575
rclavicle -3.77691e-015 7.95139e-015
rhumerus -32.1772 9.37157 -84.0926
rradius 31.3584
rwrist 3.96474
rhand -12.0602 -3.49043
rfingers 7.12502
rthumb 13.999 -32.9991
lclavicle -3.77691e-015 7.95139e-015
lhumerus -53.1986 7.59983 76.003
lradius 36.0878
lwrist -16.2231
lhand -3.42417 11.5153
lfingers 7.12502
lthumb 22.3068 40.2477
rfemur -14.1683 7.80391 30.5835
rtibia 21.5602
rfoot -19.2729 -10.5767
rtoes 16.3045
lfemur -33.0037 -2.30404 -19.0768
ltibia 62.5853
lfoot -6.1493 12.4284
ltoes -4.98289
4392
root 13.2102 15.5244 31.2032 -246.153 265.478 -102.171
lowerback -5.90897 0.442867 2.56233
upperback -6.36233 0.314757 0.847275
thorax -3.24843 -0.0151476 -0.546018
lowerneck -11.5348 -8.0697 -4.66494
upperneck 35.4901 -14.6513 4.90053
head 15.0222 -6.82489 0.285495
rclavicle 3.8763e-015 0
rhumerus -31.9398 10.0645 -84.6352
rradius 31.5865
rwrist 3.75805
rhand -12.0959 -3.58716
rfingers 7.12502
rthumb 13.9646 -33.0982
lclavicle 3.8763e-015 0
lhumerus -53.4017 7.46033 75.7178
lradius 35.6546
lwrist -16.4617
lhand -3.28617 11.5188
lfingers 7.12502
lthumb 22.4393 40.2353
rfemur -13.9663 8.35799 30.577
rtibia 21.6636
rfoot -19.4018 -9.81458
rtoes 16.0881
lfemur -33.3339 -2.91019 -18.9023
ltibia 61.6306
lfoot -7.38774 13.0397
ltoes -4.87004
4393
root 13.1617 15.5171 31.2026 -264.915 265.639 -83.3808
lowerback -5.81825 0.459236 2.55692
upperback -6.34252 0.338116 0.894493
thorax -3.2778 -0.00333127 -0.493839
lowerneck -11.6342 -7.91469 -4.51026
upperneck 35.5455 -14.4323 4.76725
head 15.0265 -6.7331 0.237628
rclavicle -2.48481e-015 4.77083e-015
rhumerus -31.7435 10.8353 -85.1423
rradius 31.8427
rwrist 3.47721
rhand -12.1196 -3.69984
rfingers 7.12502
rthumb 13.9417 -33.2124
lclavicle -2.48481e-015 4.77083e-015
lhumerus -53.6102 7.40726 75.4204
lradius 35.196
lwrist -16.7519
lhand -3.11905 11.5088
lfingers 7.12502
lthumb 22.5997 40.2058
rfemur -13.7565 8.93252 30.5542
rtibia 21.7548
rfoot -19.5248 -9.04526
rtoes 16.1159
lfemur -33.6541 -3.52848 -18.7293
ltibia 60.59
lfoot -8.60198 13.6317
ltoes -4.75809
4394
root 13.1123 15.5111 31.2014 -282.72 265.327 -65.5344
lowerback -5.7411 0.469458 2.5595
upperback -6.32721 0.352162 0.927681
thorax -3.30453 0.00307918 -0.460857
lowerneck -11.7238 -7.7484 -4.33837
upperneck 35.5934 -14.1997 4.63448
head 15.0234 -6.63403 0.19014
rclavicle -3.08116e-015 1.11319e-014
rhumerus -31.5751 11.5245 -85.6391
rradius 32.0943
rwrist 3.1912
rhand -12.1663 -3.84618
rfingers 7.12502
rthumb 13.8967 -33.3618
lclavicle -3.08116e-015 1.11319e-014
lhumerus -53.8067 7.37141 75.0762
lradius 34.7157
lwrist -17.0746
lhand -2.94479 11.4993
lfingers 7.12502
lthumb 22.767 40.1759
rfemur -13.5472 9.49991 30.5152
rtibia 21.8213
rfoot -19.6154 -8.28216
rtoes 16.235
lfemur -33.9831 -4.15839 -18.5657
ltibia 59.4688
lfoot -9.7836 14.1898
ltoes -4.66116
4395
root 13.0617 15.5066 31.1988 -296.997 264.652 -51.2099
lowerback -5.67985 0.472257 2.56331
upperback -6.30551 0.355782 0.960041
thorax -3.31601 0.00449981 -0.42969
lowerneck -11.8201 -7.57346 -4.1354
upperneck 35.6318 -13.9555 4.49166
head 15.0137 -6.52706 0.135382
rclavicle -5.91384e-015 3.18055e-015
rhumerus -31.4338 12.2135 -86.1319
rradius 32.3613
rwrist 2.88835
rhand -12.1995 -3.985
rfingers 7.12502
rthumb 13.8648 -33.5029
lclavicle -5.91384e-015 3.18055e-015
lhumerus -53.9761 7.37213 74.6836
lradius 34.2123
lwrist -17.4407
lhand -2.7578 11.4789
lfingers 7.12502
lthumb 22.9464 40.1333
rfemur -13.3277 10.065 30.4792
rtibia 21.8553
rfoot -19.6721 -7.51109
rtoes 16.4847
lfemur -34.3131 -4.78697 -18.3923
ltibia 58.2709
lfoot -10.9184 14.6992
ltoes -4.61043
4396
root 13.0101 15.5033 31.1947 -307.542 263.742 -40.6033
lowerback -5.63382 0.476523 2.58136
upperback -6.28117 0.360223 0.98443
thorax -3.31613 0.0057401 -0.414646
lowerneck -11.9211 -7.39583 -3.91137
upperneck 35.6595 -13.7098 4.3483
head 14.9992 -6.41655 0.0770701
rclavicle 1.49585e-014 -1.27222e-014
rhumerus -31.3146 12.8464 -86.6117
rradius 32.6298
rwrist 2.60583
rhand -12.2301 -4.11883
rfingers 7.12502
rthumb 13.8353 -33.6387
lclavicle 1.49585e-014 -1.27222e-014
lhumerus -54.1109 7.39736 74.2399
lradius 33.6845
lwrist -17.8571
lhand -2.5636 11.4486
lfingers 7.12502
lthumb 23.1327 40.0798
rfemur -13.1004 10.6298 30.4506
rtibia 21.8469
rfoot -19.6876 -6.73792
rtoes 16.8522
lfemur -34.654 -5.40798 -18.2032
ltibia 57.0027
lfoot -11.9917 15.1496
ltoes -4.6369
4397
root 12.9577 15.501 31.1894 -315.144 262.684 -32.9234
lowerback -5.60035 0.491465 2.62437
upperback -6.2564 0.377296 0.98315
thorax -3.30825 0.0118694 -0.439671
lowerneck -12.0307 -7.22164 -3.69651
upperneck 35.6853 -13.484 4.24862
head 14.9938 -6.30954 0.0335266
rclavicle 4.96962e-016 -3.18055e-014
rhumerus -31.225 13.4061 -87.0834
rradius 32.9044
rwrist 2.33967
rhand -12.246 -4.22936
rfingers 7.12502
rthumb 13.8199 -33.7503
lclavicle 4.96962e-016 -3.18055e-014
lhumerus -54.2046 7.41865 73.7421
lradius 33.1399
lwrist -18.3201
lhand -2.34971 11.4068
lfingers 7.12502
lthumb 23.3379 40.0121
rfemur -12.8712 11.161 30.4217
rtibia 21.798
rfoot -19.659 -5.95592
rtoes 17.1463
lfemur -35.0079 -6.03308 -18.0068
ltibia 55.6672
lfoot -12.9599 15.5391
ltoes -4.80636
4398
root 12.9044 15.4995 31.1826 -320.663 261.541 -27.324
lowerback -5.56479 0.514732 2.67702
upperback -6.23118 0.405175 0.962202
thorax -3.30056 0.0227277 -0.490111
lowerneck -12.1508 -7.0554 -3.47362
upperneck 35.7123 -13.2779 4.16192
head 14.9942 -6.20747 -0.0103065
rclavicle 7.95139e-016 3.97569e-015
rhumerus -31.1587 13.8528 -87.5287
rradius 33.163
rwrist 2.14117
rhand -12.2724 -4.29851
rfingers 7.12502
rthumb 13.7945 -33.8212
lclavicle 7.95139e-016 3.97569e-015
lhumerus -54.2621 7.43949 73.1976
lradius 32.5836
lwrist -18.8237
lhand -2.12561 11.3657
lfingers 7.12502
lthumb 23.5529 39.9435
rfemur -12.6268 11.6593 30.3942
rtibia 21.7151
rfoot -19.5802 -5.15417
rtoes 17.4208
lfemur -35.3602 -6.66075 -17.8078
ltibia 54.2683
lfoot -13.8072 15.874
ltoes -5.15088
4399
root 12.8501 15.4986 31.1744 -324.702 260.351 -23.2056
lowerback -5.52177 0.544814 2.71669
upperback -6.20789 0.442929 0.934968
thorax -3.29872 0.038909 -0.539572
lowerneck -12.2797 -6.89705 -3.27462
upperneck 35.7442 -13.084 4.09074
head 15.0043 -6.11091 -0.0468909
rclavicle 1.06847e-014 -1.27222e-014
rhumerus -31.1193 14.2009 -87.9275
rradius 33.4051
rwrist 1.98371
rhand -12.3242 -4.34733
rfingers 7.12502
rthumb 13.7445 -33.8734
lclavicle 1.06847e-014 -1.27222e-014
lhumerus -54.2913 7.47511 72.6286
lradius 32.0235
lwrist -19.3618
lhand -1.88915 11.3256
lfingers 7.12502
lthumb 23.7797 39.8741
rfemur -12.3713 12.1162 30.3581
rtibia 21.6146
rfoot -19.4705 -4.34108
rtoes 17.6476
lfemur -35.7054 -7.28978 -17.6177
ltibia 52.8057
lfoot -14.5165 16.1461
ltoes -5.69493
